<svg width="112" height="22" viewBox="0 0 112 22" fill="none" xmlns="http://www.w3.org/2000/svg">
<path d="M3.792 16V15.496L4.752 15.304C5.424 15.16 5.76 14.768 5.76 14.128V7.576C5.76 6.456 5.76 5.336 5.76 4.216C5.76 3.096 5.752 1.976 5.736 0.855999H3.84C3.328 0.855999 2.952 0.991999 2.712 1.264C2.472 1.536 2.232 1.92 1.992 2.416L1.152 4.192H0.48L0.6 0.136H14.376L14.496 4.192H13.824L12.984 2.416C12.744 1.92 12.504 1.536 12.264 1.264C12.024 0.991999 11.648 0.855999 11.136 0.855999H9.216V14.128C9.216 14.784 9.552 15.176 10.224 15.304L11.208 15.496V16H3.792ZM14.6368 16V15.544L14.9968 15.424C15.3168 15.344 15.5328 15.208 15.6448 15.016C15.7728 14.824 15.8368 14.568 15.8368 14.248V7.216C15.8208 6.864 15.7568 6.6 15.6448 6.424C15.5328 6.232 15.3168 6.104 14.9968 6.04L14.6368 5.944V5.512L18.5488 4.12L18.8368 4.384L19.0528 6.496V6.664C19.2928 6.216 19.5968 5.8 19.9648 5.416C20.3328 5.032 20.7328 4.72 21.1648 4.48C21.5968 4.24 22.0288 4.12 22.4608 4.12C23.0688 4.12 23.5248 4.28 23.8288 4.6C24.1328 4.92 24.2848 5.328 24.2848 5.824C24.2848 6.368 24.1328 6.784 23.8288 7.072C23.5248 7.344 23.1568 7.48 22.7248 7.48C22.0848 7.48 21.5328 7.192 21.0688 6.616L21.0208 6.568C20.8608 6.376 20.6768 6.272 20.4688 6.256C20.2768 6.224 20.0848 6.32 19.8928 6.544C19.7328 6.704 19.5808 6.896 19.4368 7.12C19.3088 7.328 19.1888 7.576 19.0768 7.864V14.152C19.0768 14.456 19.1408 14.712 19.2688 14.92C19.3968 15.112 19.6128 15.248 19.9168 15.328L20.6368 15.544V16H14.6368ZM28.0778 16.336C27.1658 16.336 26.3898 16.08 25.7498 15.568C25.1258 15.04 24.8138 14.288 24.8138 13.312C24.8138 12.544 25.1818 11.84 25.9178 11.2C26.6698 10.544 27.8458 10.064 29.4458 9.76C29.7178 9.696 30.0298 9.64 30.3818 9.592C30.7498 9.528 31.1098 9.464 31.4618 9.4V7.696C31.4618 6.608 31.3258 5.856 31.0538 5.44C30.7818 5.024 30.3498 4.816 29.7578 4.816H29.6858C29.3178 4.816 29.0218 4.936 28.7978 5.176C28.5898 5.4 28.4538 5.776 28.3898 6.304L28.3178 6.616C28.2698 7.256 28.1018 7.728 27.8138 8.032C27.5258 8.32 27.1658 8.464 26.7338 8.464C26.3338 8.464 25.9978 8.344 25.7258 8.104C25.4698 7.848 25.3418 7.52 25.3418 7.12C25.3418 6.464 25.5658 5.912 26.0138 5.464C26.4618 5.016 27.0538 4.68 27.7898 4.456C28.5418 4.232 29.3498 4.12 30.2138 4.12C31.6378 4.12 32.7258 4.464 33.4778 5.152C34.2298 5.84 34.6058 6.96 34.6058 8.512V13.864C34.6058 14.552 34.9338 14.896 35.5898 14.896H36.1418L36.3818 15.16C36.0938 15.528 35.7738 15.808 35.4218 16C35.0698 16.208 34.5898 16.312 33.9818 16.312C33.2938 16.312 32.7418 16.152 32.3258 15.832C31.9258 15.496 31.6618 15.056 31.5338 14.512C31.0218 15.056 30.5178 15.496 30.0218 15.832C29.5258 16.168 28.8778 16.336 28.0778 16.336ZM29.4698 14.8C29.7898 14.8 30.0938 14.728 30.3818 14.584C30.6698 14.44 31.0298 14.2 31.4618 13.864V10.024C31.0458 10.088 30.6218 10.168 30.1898 10.264C29.5018 10.424 28.9418 10.72 28.5098 11.152C28.0938 11.584 27.8858 12.168 27.8858 12.904C27.8858 13.544 28.0298 14.024 28.3178 14.344C28.6218 14.648 29.0058 14.8 29.4698 14.8ZM36.8556 16V15.544L37.2396 15.448C37.7676 15.288 38.0316 14.896 38.0316 14.272V7.192C38.0156 6.856 37.9596 6.6 37.8636 6.424C37.7676 6.232 37.5596 6.104 37.2396 6.04L36.8556 5.944V5.512L40.7436 4.12L41.0316 4.384L41.1996 5.872C41.7756 5.36 42.4156 4.944 43.1196 4.624C43.8396 4.288 44.5436 4.12 45.2316 4.12C46.2876 4.12 47.0956 4.408 47.6556 4.984C48.2316 5.56 48.5196 6.44 48.5196 7.624V14.296C48.5196 14.92 48.8076 15.312 49.3836 15.472L49.6476 15.544V16H44.1276V15.544L44.4876 15.448C45.0156 15.272 45.2796 14.88 45.2796 14.272V7.144C45.2796 6.584 45.1596 6.176 44.9196 5.92C44.6796 5.664 44.2796 5.536 43.7196 5.536C42.9356 5.536 42.1196 5.88 41.2716 6.568V14.296C41.2716 14.92 41.5516 15.312 42.1116 15.472L42.3516 15.544V16H36.8556ZM54.7888 16.336C54.0208 16.336 53.3248 16.248 52.7008 16.072C52.0928 15.912 51.5088 15.68 50.9488 15.376V12.544H51.5968L52.3168 13.912C52.6208 14.504 52.9648 14.944 53.3488 15.232C53.7488 15.52 54.2528 15.664 54.8608 15.664C55.6128 15.664 56.2128 15.504 56.6608 15.184C57.1088 14.848 57.3328 14.4 57.3328 13.84C57.3328 13.328 57.1648 12.912 56.8288 12.592C56.4928 12.272 55.8928 11.976 55.0288 11.704L53.9728 11.368C53.0288 11.08 52.2768 10.648 51.7168 10.072C51.1728 9.48 50.9008 8.744 50.9008 7.864C50.9008 7.176 51.0848 6.552 51.4528 5.992C51.8208 5.416 52.3568 4.96 53.0608 4.624C53.7648 4.288 54.6208 4.12 55.6288 4.12C56.2848 4.12 56.8848 4.2 57.4288 4.36C57.9888 4.504 58.5328 4.712 59.0608 4.984L58.9168 7.552H58.2928L57.5488 6.184C57.2928 5.672 57.0288 5.32 56.7568 5.128C56.5008 4.92 56.1008 4.816 55.5568 4.816C54.9808 4.816 54.4688 4.968 54.0208 5.272C53.5888 5.56 53.3728 5.968 53.3728 6.496C53.3728 6.992 53.5568 7.4 53.9248 7.72C54.2928 8.024 54.8848 8.312 55.7008 8.584L56.7328 8.896C57.9008 9.264 58.7328 9.752 59.2288 10.36C59.7248 10.968 59.9728 11.696 59.9728 12.544C59.9728 13.68 59.5168 14.6 58.6048 15.304C57.7088 15.992 56.4368 16.336 54.7888 16.336ZM60.7629 16V15.496L61.2429 15.352C61.5789 15.24 61.7949 15.096 61.8909 14.92C61.9869 14.728 62.0349 14.464 62.0349 14.128V1.984C62.0349 1.664 61.9869 1.416 61.8909 1.24C61.7949 1.048 61.5869 0.895999 61.2669 0.784L60.7629 0.639999V0.136H66.7149V0.639999L66.2589 0.784C65.9549 0.895999 65.7469 1.048 65.6349 1.24C65.5389 1.432 65.4909 1.696 65.4909 2.032V15.28H69.0189C69.5629 15.28 69.9709 15.144 70.2429 14.872C70.5149 14.6 70.7709 14.208 71.0109 13.696L71.8989 11.704H72.5709L72.3309 16H60.7629ZM77.1559 16.336C76.2439 16.336 75.4679 16.08 74.8279 15.568C74.2039 15.04 73.8919 14.288 73.8919 13.312C73.8919 12.544 74.2599 11.84 74.9959 11.2C75.7479 10.544 76.9239 10.064 78.5239 9.76C78.7959 9.696 79.1079 9.64 79.4599 9.592C79.8279 9.528 80.1879 9.464 80.5399 9.4V7.696C80.5399 6.608 80.4039 5.856 80.1319 5.44C79.8599 5.024 79.4279 4.816 78.8359 4.816H78.7639C78.3959 4.816 78.0999 4.936 77.8759 5.176C77.6679 5.4 77.5319 5.776 77.4679 6.304L77.3959 6.616C77.3479 7.256 77.1799 7.728 76.8919 8.032C76.6039 8.32 76.2439 8.464 75.8119 8.464C75.4119 8.464 75.0759 8.344 74.8039 8.104C74.5479 7.848 74.4199 7.52 74.4199 7.12C74.4199 6.464 74.6439 5.912 75.0919 5.464C75.5399 5.016 76.1319 4.68 76.8679 4.456C77.6199 4.232 78.4279 4.12 79.2919 4.12C80.7159 4.12 81.8039 4.464 82.5559 5.152C83.3079 5.84 83.6839 6.96 83.6839 8.512V13.864C83.6839 14.552 84.0119 14.896 84.6679 14.896H85.2199L85.4599 15.16C85.1719 15.528 84.8519 15.808 84.4999 16C84.1479 16.208 83.6679 16.312 83.0599 16.312C82.3719 16.312 81.8199 16.152 81.4039 15.832C81.0039 15.496 80.7399 15.056 80.6119 14.512C80.0999 15.056 79.5959 15.496 79.0999 15.832C78.6039 16.168 77.9559 16.336 77.1559 16.336ZM78.5479 14.8C78.8679 14.8 79.1719 14.728 79.4599 14.584C79.7479 14.44 80.1079 14.2 80.5399 13.864V10.024C80.1239 10.088 79.6999 10.168 79.2679 10.264C78.5799 10.424 78.0199 10.72 77.5879 11.152C77.1719 11.584 76.9639 12.168 76.9639 12.904C76.9639 13.544 77.1079 14.024 77.3959 14.344C77.6999 14.648 78.0839 14.8 78.5479 14.8ZM85.9337 16V15.544L86.3177 15.448C86.8457 15.288 87.1097 14.896 87.1097 14.272V7.192C87.0937 6.856 87.0377 6.6 86.9417 6.424C86.8457 6.232 86.6377 6.104 86.3177 6.04L85.9337 5.944V5.512L89.8217 4.12L90.1097 4.384L90.2777 5.872C90.8537 5.36 91.4937 4.944 92.1977 4.624C92.9177 4.288 93.6217 4.12 94.3097 4.12C95.3657 4.12 96.1737 4.408 96.7337 4.984C97.3097 5.56 97.5977 6.44 97.5977 7.624V14.296C97.5977 14.92 97.8857 15.312 98.4617 15.472L98.7257 15.544V16H93.2057V15.544L93.5657 15.448C94.0937 15.272 94.3577 14.88 94.3577 14.272V7.144C94.3577 6.584 94.2377 6.176 93.9977 5.92C93.7577 5.664 93.3577 5.536 92.7977 5.536C92.0137 5.536 91.1977 5.88 90.3497 6.568V14.296C90.3497 14.92 90.6297 15.312 91.1897 15.472L91.4297 15.544V16H85.9337ZM104.899 11.896C103.843 11.896 102.939 11.72 102.187 11.368V12.232C102.187 12.712 102.427 13 102.907 13.096L107.179 13.888C107.995 14.048 108.715 14.248 109.339 14.488C109.963 14.712 110.451 15.04 110.803 15.472C111.155 15.888 111.331 16.456 111.331 17.176C111.331 17.944 111.075 18.656 110.563 19.312C110.067 19.984 109.323 20.52 108.331 20.92C107.355 21.336 106.131 21.544 104.659 21.544C103.395 21.544 102.387 21.408 101.635 21.136C100.899 20.88 100.371 20.544 100.051 20.128C99.7309 19.712 99.5709 19.264 99.5709 18.784C99.5709 18.208 99.7629 17.632 100.147 17.056C100.547 16.48 101.059 16 101.683 15.616C100.707 15.248 100.219 14.664 100.219 13.864C100.219 13.56 100.291 13.28 100.435 13.024C100.579 12.768 100.755 12.512 100.963 12.256L101.827 11.176C100.675 10.504 100.099 9.456 100.099 8.032C100.099 6.864 100.507 5.92 101.323 5.2C102.155 4.48 103.347 4.12 104.899 4.12C106.451 4.12 107.651 4.48 108.499 5.2C109.011 5.12 109.491 4.992 109.939 4.816C110.387 4.64 110.803 4.4 111.187 4.096L111.523 4.336V5.68H108.931C109.443 6.32 109.699 7.104 109.699 8.032C109.699 9.168 109.283 10.096 108.451 10.816C107.635 11.536 106.451 11.896 104.899 11.896ZM104.851 11.248C105.523 11.248 106.011 10.992 106.315 10.48C106.635 9.952 106.795 9.112 106.795 7.96C106.795 6.824 106.643 6.008 106.339 5.512C106.035 5.016 105.563 4.768 104.923 4.768C104.283 4.768 103.803 5.024 103.483 5.536C103.179 6.032 103.027 6.856 103.027 8.008C103.027 9.16 103.171 9.992 103.459 10.504C103.747 11 104.211 11.248 104.851 11.248ZM101.443 18.088C101.443 18.968 101.723 19.624 102.283 20.056C102.843 20.504 103.731 20.728 104.947 20.728C106.291 20.728 107.283 20.504 107.923 20.056C108.579 19.624 108.907 19.048 108.907 18.328C108.907 17.88 108.739 17.528 108.403 17.272C108.083 17.016 107.539 16.816 106.771 16.672L102.475 15.832C102.411 15.816 102.347 15.8 102.283 15.784C102.043 16.104 101.843 16.472 101.683 16.888C101.523 17.304 101.443 17.704 101.443 18.088Z" fill="#1A57CE"/>
</svg>
